<?xml version="1.0" encoding="UTF-8"?>
<svg version="1.1" xmlns="http://www.w3.org/2000/svg" width="133" height="163">
<path d="M0 0 C0.83402344 -0.00128906 1.66804688 -0.00257812 2.52734375 -0.00390625 C3.39488281 -0.00003906 4.26242188 0.00382812 5.15625 0.0078125 C6.45755859 0.00201172 6.45755859 0.00201172 7.78515625 -0.00390625 C8.61917969 -0.00261719 9.45320313 -0.00132813 10.3125 0 C11.07369141 0.00112793 11.83488281 0.00225586 12.61914062 0.00341797 C14.65625 0.1328125 14.65625 0.1328125 17.65625 1.1328125 C18.46484375 4.08203125 18.46484375 4.08203125 19.09375 7.8203125 C20.73586131 16.08951588 23.39220552 20.93112744 30.2265625 25.8828125 C34.03164848 27.840413 37.89797105 28.26231195 42.1171875 28.7109375 C44.65625 29.1328125 44.65625 29.1328125 46.65625 31.1328125 C46.89916992 33.45532227 46.89916992 33.45532227 46.88671875 36.32421875 C46.88478516 37.35095703 46.88285156 38.37769531 46.88085938 39.43554688 C46.86861328 40.51126953 46.85636719 41.58699219 46.84375 42.6953125 C46.8427832 44.31469727 46.8427832 44.31469727 46.84179688 45.96679688 C46.79639598 53.99266652 46.79639598 53.99266652 45.65625 55.1328125 C34.6072256 56.33193143 25.46541866 53.8989366 16.65625 47.1328125 C16.68654297 47.72594238 16.71683594 48.31907227 16.74804688 48.93017578 C17.08683943 55.66302626 17.38419039 62.3969506 17.65625 69.1328125 C17.70362305 70.20909912 17.70362305 70.20909912 17.75195312 71.30712891 C18.37682586 86.70062849 15.96589865 100.31475609 5.40625 111.9453125 C-3.64538493 120.47279931 -13.98842843 121.61640472 -25.8515625 121.3984375 C-36.45495375 120.95096298 -43.25907879 115.75494153 -50.34375 108.1328125 C-58.9607583 97.30814091 -59.43079887 86.51318885 -58.34375 73.1328125 C-56.62188541 64.26194051 -50.71441452 56.56230148 -43.6953125 51.0546875 C-35.2542193 45.42729203 -26.68216677 41.62797679 -16.34375 43.1328125 C-13.81320663 45.66335587 -14.08691771 46.56830132 -14.078125 50.0703125 C-14.07425781 51.53597656 -14.07425781 51.53597656 -14.0703125 53.03125 C-14.07804687 54.05476563 -14.08578125 55.07828125 -14.09375 56.1328125 C-14.08214844 57.66808594 -14.08214844 57.66808594 -14.0703125 59.234375 C-14.07289062 60.21148437 -14.07546875 61.18859375 -14.078125 62.1953125 C-14.08038086 63.09378906 -14.08263672 63.99226563 -14.08496094 64.91796875 C-14.34375 67.1328125 -14.34375 67.1328125 -16.34375 69.1328125 C-18.296875 69.40625 -18.296875 69.40625 -20.59375 69.5078125 C-25.11589498 69.92288861 -27.82925034 71.13262986 -31.34375 74.1328125 C-33.93355874 78.36342472 -33.87171896 82.30566768 -33.34375 87.1328125 C-32.00895458 91.13719875 -31.04653688 92.66428792 -27.53125 95.0078125 C-22.82322173 96.66946954 -19.86427827 96.66946954 -15.15625 95.0078125 C-11.66354901 92.67934517 -10.88602955 91.02244537 -9.34375 87.1328125 C-9.05599936 84.27215227 -8.91595744 81.62922841 -8.92724609 78.77246094 C-8.91436806 77.54701569 -8.91436806 77.54701569 -8.90122986 76.29681396 C-8.87625059 73.61184971 -8.87179891 70.92725713 -8.8671875 68.2421875 C-8.85287252 66.37224199 -8.83711461 64.50230702 -8.81997681 62.63238525 C-8.77818689 57.72100918 -8.75314549 52.80969847 -8.73248291 47.89819336 C-8.69661593 40.02276064 -8.63576853 32.14748888 -8.57399368 24.27222443 C-8.5548739 21.51902814 -8.54316715 18.76587503 -8.53256226 16.01263428 C-8.52235459 14.3336172 -8.51199705 12.65460102 -8.50146484 10.97558594 C-8.49990135 9.82231812 -8.49990135 9.82231812 -8.49830627 8.64575195 C-8.45717606 3.35966462 -8.45717606 3.35966462 -7.34375 1.1328125 C-4.56353582 0.20607444 -2.87141109 0.00425484 0 0 Z " fill="#1371D7" transform="translate(75.34375,23.8671875)"/>
<path d="M0 0 C0.83402344 -0.00128906 1.66804688 -0.00257812 2.52734375 -0.00390625 C3.39488281 -0.00003906 4.26242188 0.00382812 5.15625 0.0078125 C6.45755859 0.00201172 6.45755859 0.00201172 7.78515625 -0.00390625 C8.61917969 -0.00261719 9.45320313 -0.00132813 10.3125 0 C11.07369141 0.00112793 11.83488281 0.00225586 12.61914062 0.00341797 C14.65625 0.1328125 14.65625 0.1328125 17.65625 1.1328125 C18.64625 6.4128125 19.63625 11.6928125 20.65625 17.1328125 C19.99625 16.8028125 19.33625 16.4728125 18.65625 16.1328125 C17.41584733 11.84830237 16.5885559 7.49769921 15.65625 3.1328125 C8.72625 3.1328125 1.79625 3.1328125 -5.34375 3.1328125 C-5.67375 31.1828125 -6.00375 59.2328125 -6.34375 88.1328125 C-7.00375 88.1328125 -7.66375 88.1328125 -8.34375 88.1328125 C-8.446875 88.7103125 -8.55 89.2878125 -8.65625 89.8828125 C-9.74386153 93.44226842 -11.2478346 95.48815638 -14.46875 97.3828125 C-19.93775113 98.80950845 -25.12725508 99.09018991 -30.28125 96.5078125 C-33.90968362 93.6939252 -34.60802076 92.62893561 -35.34375 88.1328125 C-35.85043355 82.73623061 -36.09982027 78.56673887 -33.53125 73.6953125 C-32.4484375 72.426875 -32.4484375 72.426875 -31.34375 71.1328125 C-30.9415625 70.42511719 -30.539375 69.71742187 -30.125 68.98828125 C-28.34375 67.1328125 -28.34375 67.1328125 -25.20703125 66.7421875 C-24.03527344 66.78859375 -22.86351562 66.835 -21.65625 66.8828125 C-20.47675781 66.91890625 -19.29726563 66.955 -18.08203125 66.9921875 C-17.17839844 67.03859375 -16.27476563 67.085 -15.34375 67.1328125 C-15.67375 67.7928125 -16.00375 68.4528125 -16.34375 69.1328125 C-18.19921875 69.40625 -18.19921875 69.40625 -20.53125 69.5078125 C-25.08345942 69.92099074 -27.80476975 71.1117318 -31.34375 74.1328125 C-33.93355874 78.36342472 -33.87171896 82.30566768 -33.34375 87.1328125 C-32.00895458 91.13719875 -31.04653688 92.66428792 -27.53125 95.0078125 C-22.82322173 96.66946954 -19.86427827 96.66946954 -15.15625 95.0078125 C-11.66354901 92.67934517 -10.88602955 91.02244537 -9.34375 87.1328125 C-9.05599936 84.27215227 -8.91595744 81.62922841 -8.92724609 78.77246094 C-8.91866074 77.95549744 -8.91007538 77.13853394 -8.90122986 76.29681396 C-8.87625059 73.61184971 -8.87179891 70.92725713 -8.8671875 68.2421875 C-8.85287252 66.37224199 -8.83711461 64.50230702 -8.81997681 62.63238525 C-8.77818689 57.72100918 -8.75314549 52.80969847 -8.73248291 47.89819336 C-8.69661593 40.02276064 -8.63576853 32.14748888 -8.57399368 24.27222443 C-8.5548739 21.51902814 -8.54316715 18.76587503 -8.53256226 16.01263428 C-8.52235459 14.3336172 -8.51199705 12.65460102 -8.50146484 10.97558594 C-8.49990135 9.82231812 -8.49990135 9.82231812 -8.49830627 8.64575195 C-8.45717606 3.35966462 -8.45717606 3.35966462 -7.34375 1.1328125 C-4.56353582 0.20607444 -2.87141109 0.00425484 0 0 Z " fill="#123D6A" transform="translate(75.34375,23.8671875)"/>
<path d="M0 0 C2.475 0.495 2.475 0.495 5 1 C4.34 1.33 3.68 1.66 3 2 C3.03029297 2.59312988 3.06058594 3.18625977 3.09179688 3.79736328 C3.43058943 10.53021376 3.72794039 17.2641381 4 24 C4.03158203 24.71752441 4.06316406 25.43504883 4.09570312 26.17431641 C4.72057586 41.56781599 2.30964865 55.18194359 -8.25 66.8125 C-17.29888611 75.33739716 -27.61877398 76.45346387 -39.47265625 76.29296875 C-44.76099414 76.07705112 -49.51519497 74.90505101 -54 72 C-54.33 71.34 -54.66 70.68 -55 70 C-51 71.33333333 -47 72.66666667 -43 74 C-40.89758584 74.09543669 -38.79207357 74.12985484 -36.6875 74.125 C-35.02267578 74.12886719 -35.02267578 74.12886719 -33.32421875 74.1328125 C-30.10866399 74.00434145 -27.13462712 73.73156733 -24 73 C-23.67 72.34 -23.34 71.68 -23 71 C-21.35 71 -19.7 71 -18 71 C-18 70.34 -18 69.68 -18 69 C-17.01 69 -16.02 69 -15 69 C-15 68.01 -15 67.02 -15 66 C-12.525 65.01 -12.525 65.01 -10 64 C-10 63.01 -10 62.02 -10 61 C-8.625 59.3125 -8.625 59.3125 -7 58 C-6.34 58 -5.68 58 -5 58 C-1.04439828 45.29109322 -0.34766769 33.25100758 -0.25 20 C-0.22176414 18.04945363 -0.19182647 16.09893113 -0.16015625 14.1484375 C-0.08720891 9.43233586 -0.03708756 4.71651432 0 0 Z " fill="#17457F" transform="translate(89,69)"/>
<path d="M0 0 C0.680625 0.721875 1.36125 1.44375 2.0625 2.1875 C8.21781669 8.20603187 12.68812318 10.54531896 21.42578125 11.54296875 C24 12 24 12 26 14 C26.24291992 16.32250977 26.24291992 16.32250977 26.23046875 19.19140625 C26.22853516 20.21814453 26.22660156 21.24488281 26.22460938 22.30273438 C26.20624023 23.91631836 26.20624023 23.91631836 26.1875 25.5625 C26.18685547 26.64208984 26.18621094 27.72167969 26.18554688 28.83398438 C26.14014598 36.85985402 26.14014598 36.85985402 25 38 C15.83142448 38.9950392 8.00166843 37.69519387 0 33 C-0.66 32.01 -1.32 31.02 -2 30 C3.64796311 31.79707917 3.64796311 31.79707917 5.7890625 33.03125 C8.74613998 34.32693059 11.41100448 34.42911314 14.625 34.625 C15.77226563 34.69976562 16.91953125 34.77453125 18.1015625 34.8515625 C19.73298649 34.93511252 21.36643799 35 23 35 C23 28.73 23 22.46 23 16 C20.69 15.67 18.38 15.34 16 15 C14.34974719 14.66703294 12.70289601 14.31605293 11.0625 13.9375 C10.29035156 13.76089844 9.51820312 13.58429687 8.72265625 13.40234375 C8.15417969 13.26957031 7.58570312 13.13679688 7 13 C7 12.34 7 11.68 7 11 C6.34 11 5.68 11 5 11 C4.731875 10.21625 4.46375 9.4325 4.1875 8.625 C3.15185568 5.71885077 3.15185568 5.71885077 0 4 C0 2.68 0 1.36 0 0 Z " fill="#1B4C82" transform="translate(96,41)"/>
<path d="M0 0 C0.66 0.33 1.32 0.66 2 1 C2.09926507 6.56838851 2.17165521 12.13625604 2.21972656 17.70532227 C2.23977703 19.5976662 2.26702477 21.48994868 2.30175781 23.38208008 C2.35056652 26.11034351 2.37303442 28.83778415 2.390625 31.56640625 C2.41127014 32.40522842 2.43191528 33.2440506 2.45318604 34.10829163 C2.45537716 39.9123917 1.36346553 43.23762132 -2 48 C-7.95727337 52.84028461 -13.54604322 52.44062799 -21 52 C-21.495 50.515 -21.495 50.515 -22 49 C-21.27554688 49.03480469 -20.55109375 49.06960937 -19.8046875 49.10546875 C-11.93454491 49.38727811 -11.93454491 49.38727811 -5 46 C-3.09793151 42.94960779 -3.09793151 42.94960779 -2 40 C-1.34 40 -0.68 40 0 40 C0 26.8 0 13.6 0 0 Z " fill="#1D6BCA" transform="translate(69,72)"/>
<path d="M0 0 C0.33 0.66 0.66 1.32 1 2 C0.37207813 3.35201196 -0.30074222 4.68346638 -1 6 C-4.10674503 15.85720336 -3.77747951 24.21060565 0.125 33.75 C1 36 1 36 1 38 C1.66 38 2.32 38 3 38 C3.37125 39.175625 3.7425 40.35125 4.125 41.5625 C5.84421565 46.22182357 8.58299611 49.4613552 12 53 C3.65273797 49.20080853 -0.53304851 42.19461262 -4 34 C-7.11449873 24.6565038 -6.25431486 11.34485227 -1.97265625 2.58203125 C-1 1 -1 1 0 0 Z " fill="#184B81" transform="translate(22,86)"/>
<path d="M0 0 C0.66 0.33 1.32 0.66 2 1 C0.6875 3.9375 0.6875 3.9375 -1 7 C-1.99 7.33 -2.98 7.66 -4 8 C-4.0825 8.721875 -4.165 9.44375 -4.25 10.1875 C-5 13 -5 13 -6.875 15.1875 C-9.45819791 18.60643841 -10.30055574 21.78869095 -11.38671875 25.890625 C-12 28 -12 28 -13 29 C-13.23075082 30.34747084 -13.41153063 31.70377565 -13.5625 33.0625 C-13.7790625 35.0115625 -13.7790625 35.0115625 -14 37 C-14.33 37 -14.66 37 -15 37 C-15.71841569 24.73371735 -12.71139191 12.82520382 -4.5 3.48046875 C-3 2 -3 2 0 0 Z " fill="#1F74C6" transform="translate(33,74)"/>
<path d="M0 0 C0.87454834 0.00523682 1.74909668 0.01047363 2.65014648 0.01586914 C3.59438477 0.0190918 4.53862305 0.02231445 5.51147461 0.02563477 C6.50469727 0.03401367 7.49791992 0.04239258 8.52124023 0.05102539 C9.51833008 0.05553711 10.51541992 0.06004883 11.54272461 0.06469727 C14.01478872 0.07652532 16.48673541 0.0930069 18.95874023 0.11352539 C19.28874023 1.43352539 19.61874023 2.75352539 19.95874023 4.11352539 C18.96874023 3.78352539 17.97874023 3.45352539 16.95874023 3.11352539 C16.95874023 2.45352539 16.95874023 1.79352539 16.95874023 1.11352539 C14.3124974 1.25374344 11.66689445 1.40042315 9.02124023 1.55102539 C7.88912109 1.61 7.88912109 1.61 6.73413086 1.67016602 C3.03929836 1.55390563 3.03929836 1.55390563 -0.04125977 3.11352539 C-0.28476034 6.03553233 -0.46783056 8.93603365 -0.60375977 11.86352539 C-0.64694336 12.72445801 -0.69012695 13.58539063 -0.73461914 14.47241211 C-1.01408538 20.41772371 -1.07097554 26.33752261 -1.01000977 32.28930664 C-1.05424335 36.28691672 -1.50440327 40.15420871 -2.04125977 44.11352539 C-2.37125977 44.11352539 -2.70125977 44.11352539 -3.04125977 44.11352539 C-3.0659049 38.00797829 -3.08409347 31.90245988 -3.09619141 25.796875 C-3.10123265 23.71809383 -3.10806551 21.63931623 -3.11669922 19.56054688 C-3.12877399 16.57949953 -3.13449001 13.5984989 -3.13891602 10.61743164 C-3.14665794 9.2143148 -3.14665794 9.2143148 -3.15455627 7.78285217 C-3.15463181 6.92203537 -3.15470734 6.06121857 -3.15478516 5.17431641 C-3.15700577 4.41264664 -3.15922638 3.65097687 -3.16151428 2.8662262 C-2.98464022 0.28829963 -2.56939832 0.142898 0 0 Z " fill="#217CD5" transform="translate(72.041259765625,25.886474609375)"/>
<path d="M0 0 C0.495 0.99 0.495 0.99 1 2 C-5.89460544 11.43031139 -12.1370535 18.54464596 -24 21 C-33.42023162 22.02279309 -43.75529678 22.34054062 -52 17 C-52.33 16.34 -52.66 15.68 -53 15 C-49 16.33333333 -45 17.66666667 -41 19 C-38.89758584 19.09543669 -36.79207357 19.12985484 -34.6875 19.125 C-33.02267578 19.12886719 -33.02267578 19.12886719 -31.32421875 19.1328125 C-28.10866399 19.00434145 -25.13462712 18.73156733 -22 18 C-21.67 17.34 -21.34 16.68 -21 16 C-19.35 16 -17.7 16 -16 16 C-16 15.34 -16 14.68 -16 14 C-14.989375 13.67 -13.97875 13.34 -12.9375 13 C-7.0404008 10.50691741 -3.45784206 5.18676309 0 0 Z " fill="#153763" transform="translate(87,124)"/>
<path d="M0 0 C2.92879371 0.62759865 5.36095629 1.58622659 8 3 C8 3.66 8 4.32 8 5 C8.85464844 5.06058594 9.70929687 5.12117187 10.58984375 5.18359375 C12.24693359 5.30927734 12.24693359 5.30927734 13.9375 5.4375 C15.03964844 5.51871094 16.14179687 5.59992188 17.27734375 5.68359375 C20 6 20 6 21 7 C23.53049402 7.07313567 26.03304837 7.09247527 28.5625 7.0625 C29.62887695 7.05573242 29.62887695 7.05573242 30.71679688 7.04882812 C32.47790013 7.03700864 34.23896036 7.01907263 36 7 C35.67 7.66 35.34 8.32 35 9 C24.20703732 11.42290999 13.56371034 10.91343922 4 5 C1.66015625 2.32421875 1.66015625 2.32421875 0 0 Z " fill="#1C62B3" transform="translate(30,134)"/>
<path d="M0 0 C0.33 0 0.66 0 1 0 C1 3.96 1 7.92 1 12 C-3.48330204 14.24165102 -9.25828754 12.92925509 -14 12 C-18.60873759 10.1916442 -22.81396613 7.62397868 -27 5 C-27 4.67 -27 4.34 -27 4 C-25.35 4 -23.7 4 -22 4 C-21.67 4.66 -21.34 5.32 -21 6 C-18.68925595 6.74118205 -16.35188447 7.40206327 -14 8 C-13.278125 8.185625 -12.55625 8.37125 -11.8125 8.5625 C-11.214375 8.706875 -10.61625 8.85125 -10 9 C-8.66666667 9.33333333 -7.33333333 9.66666667 -6 10 C-6 10.66 -6 11.32 -6 12 C-3.97802995 11.36569047 -3.97802995 11.36569047 -2 10 C-1.08400573 7.59595262 -1.08400573 7.59595262 -0.75 4.875 C-0.60046875 3.96492188 -0.4509375 3.05484375 -0.296875 2.1171875 C-0.19890625 1.41851562 -0.1009375 0.71984375 0 0 Z " fill="#196AC8" transform="translate(118,64)"/>
<path d="M0 0 C1.30324219 -0.02126953 1.30324219 -0.02126953 2.6328125 -0.04296875 C4.875 0.1875 4.875 0.1875 6.875 2.1875 C7.10205078 4.43408203 7.10205078 4.43408203 7.0703125 7.1953125 C7.06386719 8.18144531 7.05742188 9.16757813 7.05078125 10.18359375 C7.03402344 11.21613281 7.01726563 12.24867187 7 13.3125 C6.99097656 14.35277344 6.98195313 15.39304687 6.97265625 16.46484375 C6.94903747 19.03929092 6.91610149 21.61328212 6.875 24.1875 C6.545 24.1875 6.215 24.1875 5.875 24.1875 C5.545 17.2575 5.215 10.3275 4.875 3.1875 C-5.74320057 3.05653384 -5.74320057 3.05653384 -15.125 7.1875 C-17.3125 6.8125 -17.3125 6.8125 -19.125 6.1875 C-17.54425436 5.36997697 -15.96028777 4.55868003 -14.375 3.75 C-13.49328125 3.29753906 -12.6115625 2.84507813 -11.703125 2.37890625 C-7.70551597 0.53152632 -4.39390952 0.03279037 0 0 Z " fill="#153E69" transform="translate(54.125,66.8125)"/>
<path d="M0 0 C0.33 0 0.66 0 1 0 C1.86591166 4.92821329 1.86449132 8.58366564 -0.79296875 12.9375 C-4.76168115 17.83025097 -8.94207888 22.23898173 -14 26 C-14.33 25.01 -14.66 24.02 -15 23 C-13.35 22.34 -11.7 21.68 -10 21 C-10 20.01 -10 19.02 -10 18 C-8.625 16.3125 -8.625 16.3125 -7 15 C-6.34 15 -5.68 15 -5 15 C-4.80664062 14.25234375 -4.61328125 13.5046875 -4.4140625 12.734375 C-4.15367188 11.74953125 -3.89328125 10.7646875 -3.625 9.75 C-3.36976562 8.77546875 -3.11453125 7.8009375 -2.8515625 6.796875 C-2.10401491 4.34162697 -1.22876183 2.24382595 0 0 Z " fill="#1D58A6" transform="translate(89,112)"/>
<path d="M0 0 C0.66 0.33 1.32 0.66 2 1 C1.51273438 1.82371094 1.51273438 1.82371094 1.015625 2.6640625 C-1.23597346 7.84273896 -0.40672424 14.10195356 0.75 19.5 C2.12355798 22.24711597 3.38736933 23.4324216 6 25 C3.1875 24.8125 3.1875 24.8125 0 24 C-4.24273651 18.56059422 -3.6433999 12.58247594 -3 6 C-2.24864586 3.59048499 -1.43595624 2.09410285 0 0 Z " fill="#1F68B7" transform="translate(41,96)"/>
<path d="M0 0 C0.75 1.625 0.75 1.625 1 4 C-1.1229606 7.93140853 -2.78335826 10.44534252 -7 12 C-10.015625 12.1953125 -10.015625 12.1953125 -13.25 12.125 C-14.32765625 12.10695313 -15.4053125 12.08890625 -16.515625 12.0703125 C-17.33546875 12.04710938 -18.1553125 12.02390625 -19 12 C-19.33 11.01 -19.66 10.02 -20 9 C-19.27554688 9.03480469 -18.55109375 9.06960937 -17.8046875 9.10546875 C-9.93454491 9.38727811 -9.93454491 9.38727811 -3 6 C-1.09793151 2.94960779 -1.09793151 2.94960779 0 0 Z " fill="#1E64BA" transform="translate(67,112)"/>
<path d="M0 0 C0.33 0.66 0.66 1.32 1 2 C0.37185489 3.35190826 -0.30091491 4.68337467 -1 6 C-2.98302033 12.32887024 -3.25781847 18.47776893 -3.125 25.0625 C-3.11597656 25.92810547 -3.10695313 26.79371094 -3.09765625 27.68554688 C-3.07439723 29.79048779 -3.03854008 31.89528342 -3 34 C-5.78479909 29.82280137 -5.3825766 26.35293197 -5.375 21.4375 C-5.37556396 20.53668701 -5.37612793 19.63587402 -5.37670898 18.70776367 C-5.27002694 12.26078678 -4.85355066 4.85355066 0 0 Z " fill="#103963" transform="translate(22,86)"/>
<path d="M0 0 C1.17175781 0.04640625 2.34351563 0.0928125 3.55078125 0.140625 C5.32001953 0.19476563 5.32001953 0.19476563 7.125 0.25 C8.48044922 0.31960937 8.48044922 0.31960937 9.86328125 0.390625 C9.53328125 1.050625 9.20328125 1.710625 8.86328125 2.390625 C7.0078125 2.6640625 7.0078125 2.6640625 4.67578125 2.765625 C0.1070831 3.186904 -2.58817761 4.34901831 -6.13671875 7.390625 C-7.99982197 9.99086549 -7.99982197 9.99086549 -9.13671875 12.390625 C-9.46671875 11.730625 -9.79671875 11.070625 -10.13671875 10.390625 C-8.81393005 8.38363525 -7.4788885 6.38470577 -6.13671875 4.390625 C-5.73453125 3.66875 -5.33234375 2.946875 -4.91796875 2.203125 C-3.13671875 0.390625 -3.13671875 0.390625 0 0 Z " fill="#154273" transform="translate(50.13671875,90.609375)"/>
<path d="M0 0 C0.74185547 -0.020625 1.48371094 -0.04125 2.24804688 -0.0625 C4.40234375 -0.078125 4.40234375 -0.078125 8.0625 0.25 C8.7225 1.24 9.3825 2.23 10.0625 3.25 C9.7325 4.24 9.4025 5.23 9.0625 6.25 C7.7425 5.92 6.4225 5.59 5.0625 5.25 C5.0625 4.26 5.0625 3.27 5.0625 2.25 C3.64594207 2.2227585 2.22922955 2.20349533 0.8125 2.1875 C0.02359375 2.17589844 -0.7653125 2.16429688 -1.578125 2.15234375 C-3.90608185 2.24869958 -5.75458062 2.43373741 -7.9375 3.25 C-8.5975 4.24 -9.2575 5.23 -9.9375 6.25 C-8.68907176 -0.70552876 -6.61859811 0.04576386 0 0 Z " fill="#1684E1" transform="translate(80.9375,26.75)"/>
<path d="M0 0 C0.87454834 0.00523682 1.74909668 0.01047363 2.65014648 0.01586914 C3.59438477 0.0190918 4.53862305 0.02231445 5.51147461 0.02563477 C6.50469727 0.03401367 7.49791992 0.04239258 8.52124023 0.05102539 C9.51833008 0.05553711 10.51541992 0.06004883 11.54272461 0.06469727 C14.01478872 0.07652532 16.48673541 0.0930069 18.95874023 0.11352539 C19.28874023 1.43352539 19.61874023 2.75352539 19.95874023 4.11352539 C18.96874023 3.78352539 17.97874023 3.45352539 16.95874023 3.11352539 C16.95874023 2.45352539 16.95874023 1.79352539 16.95874023 1.11352539 C11.01874023 1.44352539 5.07874023 1.77352539 -1.04125977 2.11352539 C-1.70125977 3.43352539 -2.36125977 4.75352539 -3.04125977 6.11352539 C-3.08398077 4.44740634 -3.08189809 2.77969654 -3.04125977 1.11352539 C-2.04125977 0.11352539 -2.04125977 0.11352539 0 0 Z " fill="#2A7CC1" transform="translate(72.041259765625,25.886474609375)"/>
<path d="M0 0 C0 0.33 0 0.66 0 1 C-0.64066406 1.12117188 -1.28132813 1.24234375 -1.94140625 1.3671875 C-6.01903775 2.15719062 -10.03077724 2.95393606 -14 4.1875 C-17 5 -17 5 -19 4 C-12.86724418 -0.14862894 -7.15759118 -0.12340674 0 0 Z " fill="#2179CB" transform="translate(58,69)"/>
<path d="M0 0 C0.99 0.33 1.98 0.66 3 1 C0.15240273 4.04398329 -1.69846555 5.88998401 -6.04296875 6.09765625 C-6.75066406 6.08605469 -7.45835938 6.07445312 -8.1875 6.0625 C-10.0746875 6.0315625 -10.0746875 6.0315625 -12 6 C-12 5.67 -12 5.34 -12 5 C-11.030625 4.87625 -10.06125 4.7525 -9.0625 4.625 C-8.051875 4.41875 -7.04125 4.2125 -6 4 C-5.67 3.34 -5.34 2.68 -5 2 C-3.35 2 -1.7 2 0 2 C0 1.34 0 0.68 0 0 Z " fill="#194B83" transform="translate(71,138)"/>
<path d="M0 0 C1.30102931 4.32058242 0.72449924 7.58055464 0 12 C-0.33 12.33 -0.66 12.66 -1 13 C-1.23075082 14.34747084 -1.41153063 15.70377565 -1.5625 17.0625 C-1.706875 18.361875 -1.85125 19.66125 -2 21 C-2.33 21 -2.66 21 -3 21 C-3.44032071 13.48193151 -2.28612778 7.15775723 0 0 Z " fill="#206EB9" transform="translate(21,90)"/>
<path d="M0 0 C0.66 0.33 1.32 0.66 2 1 C0 4 0 4 -2.3125 5.375 C-5.36113115 7.21835837 -7.5600205 9.4205931 -10 12 C-7.87880087 6.98625661 -4.506805 3.00453667 0 0 Z " fill="#0E3B69" transform="translate(33,74)"/>
<path d="M0 0 C4.9723422 1.49170266 9.41845739 3.60457417 14 6 C11 7 11 7 8.5546875 6.07421875 C7.67039062 5.61660156 6.78609375 5.15898438 5.875 4.6875 C4.98554687 4.23761719 4.09609375 3.78773437 3.1796875 3.32421875 C1 2 1 2 0 0 Z " fill="#143860" transform="translate(94,71)"/>
<path d="M0 0 C0.75 1.625 0.75 1.625 1 4 C-0.5625 7.25 -0.5625 7.25 -3 10 C-6.25 10.375 -6.25 10.375 -9 10 C-7 8 -7 8 -5.0625 7.25 C-2.11625392 5.46439631 -1.34465864 3.09271487 0 0 Z " fill="#205EAB" transform="translate(67,112)"/>
<path d="M0 0 C3.3 1.65 6.6 3.3 10 5 C6.29847322 5.92538169 5.36541838 6.08174162 2 5 C2 4.34 2 3.68 2 3 C1.34 3 0.68 3 0 3 C0 2.01 0 1.02 0 0 Z " fill="#236CBF" transform="translate(101,49)"/>
<path d="M0 0 C1.65 0 3.3 0 5 0 C5.33 0.66 5.66 1.32 6 2 C6.66 2.144375 7.32 2.28875 8 2.4375 C8.66 2.623125 9.32 2.80875 10 3 C10.33 3.99 10.66 4.98 11 6 C6.49197399 4.74194623 3.5087188 3.09592835 0 0 Z " fill="#2064B4" transform="translate(91,68)"/>
<path d="M0 0 C0.33 0 0.66 0 1 0 C1.13277344 0.68707031 1.26554687 1.37414062 1.40234375 2.08203125 C1.57894531 2.98308594 1.75554687 3.88414063 1.9375 4.8125 C2.11152344 5.70582031 2.28554687 6.59914063 2.46484375 7.51953125 C2.97741153 10.11397171 2.97741153 10.11397171 4 13 C3.01 13 2.02 13 1 13 C0.1276588 10.00519083 -0.10829766 7.36424089 -0.0625 4.25 C-0.05347656 3.45078125 -0.04445313 2.6515625 -0.03515625 1.828125 C-0.02355469 1.22484375 -0.01195313 0.6215625 0 0 Z " fill="#2267AC" transform="translate(92,30)"/>
</svg>
